<?xml version="1.0" encoding="utf-8"?><!DOCTYPE svg PUBLIC "-//W3C//DTD SVG 1.1//EN" "http://www.w3.org/Graphics/SVG/1.1/DTD/svg11.dtd"><svg width="102" height="68" viewBox="0 0 102 68" xmlns="http://www.w3.org/2000/svg" xmlns:xlink="http://www.w3.org/1999/xlink"><svg width="34" height="34" viewBox="-1 -1 34 34" id="Home_icone"><path fill="#818181" d="M30.8 14.6l-4.6-4.8V4.3c0-1-.8-1.8-1.8-1.8s-1.8.8-1.8 1.8v1.9l-3.5-3.5c-1.7-1.7-4.7-1.7-6.4 0L1.2 14.6c-.7.7-.7 1.8 0 2.5s1.8.7 2.5 0L15.3 5.3c.4-.4 1-.4 1.4 0l11.6 11.9c.3.4.8.5 1.2.5.5 0 .9-.2 1.2-.5.8-.8.8-1.9.1-2.6zM16.6 8.7c-.3-.3-.9-.3-1.2 0L5.2 19.1c-.2.2-.3.4-.3.6v7.6c0 1.8 1.4 3.2 3.2 3.2h5.1v-8h5.7v8H24c1.7 0 3.2-1.5 3.2-3.2v-7.6c0-.2-.1-.5-.3-.6L16.6 8.7z"/></svg><svg width="34" height="34" viewBox="-1 -1 34 34" id="account_icone" x="34"><path fill="#818181" d="M16 15.414c4.192 0 7.589-3.338 7.589-7.458C23.589 3.838 20.192.5 16 .5c-4.19 0-7.589 3.338-7.589 7.457S11.81 15.414 16 15.414zm4.714 1.602h-9.426c-4.412 0-7.988 3.514-7.988 7.849v7.383h25.4v-7.383c0-4.336-3.576-7.849-7.986-7.849z"/></svg><svg width="34" height="34" viewBox="-1 -1 34 34" id="circle_play_icone" y="34"><path fill="#818181" d="M16 .8C7.6.8.8 7.6.8 16c0 8.4 6.8 15.2 15.2 15.2 8.4 0 15.2-6.8 15.2-15.2C31.2 7.6 24.4.8 16 .8zm-3.8 22.9V8.4L23.9 16l-11.7 7.7z"/></svg><svg width="34" height="34" viewBox="-1 -1 34 34" id="phone_icone" x="34" y="34"><path fill="#818181" d="M24.4 30.8c.7 0 6.7-4.4 6.7-5 0-.6-6.8-4.8-7.4-4.8-.6 0-2.6 2.3-3.1 2.6-.5.3-3.9.2-7.5-3.5-3.7-3.6-5-7.8-5-8.5 0-.7 3.1-2.7 3.2-3.2.2-.3-4-7.4-4.7-7.4C6 1 .8 7.1.8 7.6s.5 7.1 8.9 15.4 14.1 7.8 14.7 7.8z"/></svg><svg width="34" height="34" viewBox="-1 -1 34 34" id="question_icone" x="68"><path fill="#818181" d="M16 .4C7.4.4.4 7.4.4 16s7 15.6 15.6 15.6 15.6-7 15.6-15.6S24.6.4 16 .4zm0 28.7C8.7 29.1 2.9 23.3 2.9 16S8.7 2.9 16 2.9 29.1 8.7 29.1 16 23.3 29.1 16 29.1zm-1-5.3h2v-1.9h-2v1.9zm4.8-14.2c-.4-.4-.9-.7-1.5-1-.6-.2-1.3-.4-2.2-.4-.7 0-1.4.1-2 .4-.6.3-1.1.6-1.6 1-.4.4-.8.9-1 1.5-.2.6-.3 1-.3 1.9h2c0-1 .3-1.7.8-2.3.5-.6 1.2-.9 2.1-.9.9 0 1.5.2 2 .7.4.4.6 1 .6 1.8 0 .6-.2 1.1-.6 1.6-.4.5-.8.9-1.3 1.4-.5.4-.8.9-1.2 1.4-.4.5-.5 1-.5 1.7V20H17v-.8c0-.5.1-.9.3-1.3.2-.4.4-.7.7-1l.9-.9c.3-.3.7-.6.9-.9.3-.3.5-.7.7-1.1.2-.4.3-.9.3-1.4 0-.5-.1-1-.3-1.5-.1-.7-.4-1.1-.7-1.5z"/></svg></svg>