<?xml version="1.0" encoding="utf-8"?>
<!-- Generator: Adobe Illustrator 21.0.0, SVG Export Plug-In . SVG Version: 6.00 Build 0)  -->
<svg version="1.1" id="Layer_1" xmlns="http://www.w3.org/2000/svg" xmlns:xlink="http://www.w3.org/1999/xlink" x="0px" y="0px"
	 width="32px" height="32px" viewBox="0 0 32 32" enable-background="new 0 0 32 32" xml:space="preserve">
<g>
	<g>
		<path fill="#818181" d="M8.6,27.8c0.2,1.1,1.1,2,2.1,2.1l0,0h11.5c0.2,0,0.3,0.1,0.5,0.1c1.2,0,2.2-0.9,2.5-2.1l0.1-0.1l3.5-13.5
			H5.2L8.6,27.8z M22.1,17.8c0.9,0,1.7,0.8,1.7,1.8c0,1-0.8,1.8-1.7,1.8c-0.9,0-1.7-0.8-1.7-1.8C20.4,18.6,21.1,17.8,22.1,17.8z
			 M22,22.9c1,0,1.8,0.8,1.8,1.8c0,1-0.8,1.8-1.8,1.8c-1,0-1.8-0.8-1.8-1.8C20.2,23.7,21,22.9,22,22.9z M17,26.5
			c-0.9,0-1.7-0.8-1.7-1.8c0-1,0.8-1.8,1.7-1.8c0.9,0,1.7,0.8,1.7,1.8C18.7,25.7,18,26.5,17,26.5z M17,17.7c0.9,0,1.7,0.8,1.7,1.8
			s-0.8,1.8-1.7,1.8c-0.9,0-1.7-0.8-1.7-1.8S16,17.7,17,17.7z M12,26.6c-0.9,0-1.7-0.8-1.7-1.7c0-1,0.8-1.7,1.7-1.7
			c0.9,0,1.7,0.8,1.7,1.7C13.7,25.8,12.9,26.6,12,26.6z M11.9,17.8c0.9,0,1.7,0.8,1.7,1.7c0,1-0.8,1.7-1.7,1.7
			c-0.9,0-1.7-0.8-1.7-1.7C10.2,18.6,11,17.8,11.9,17.8z M18.8,9.1l-4.8-7.2l-3,1.8l3.6,5.4H3.5v3.5h27V9.1H18.8z"/>
	</g>
</g>
</svg>
