<?xml version="1.0" encoding="utf-8"?>
<!-- Generator: Adobe Illustrator 21.0.1, SVG Export Plug-In . SVG Version: 6.00 Build 0)  -->
<svg version="1.1" id="Layer_1" xmlns="http://www.w3.org/2000/svg" xmlns:xlink="http://www.w3.org/1999/xlink" x="0px" y="0px"
	 width="32px" height="32px" viewBox="0 0 32 32" enable-background="new 0 0 32 32" xml:space="preserve">
<g>
	<g>
		<path fill="#818181" d="M20.8,13.1c0,0,0,0-0.1,0c-0.1,0-0.1,0.1-0.1,0.2l-1.1,5.5c0,0.1,0,0.2,0.1,0.2h0.2c1.6,0,3-1,3-3.8
			C22.8,13.7,21.9,13.1,20.8,13.1z M28.4,6.7H3.6c-1.7,0-3.1,1.4-3.1,3.1v12.4c0,1.7,1.4,3.1,3.1,3.1h24.7c1.7,0,3.1-1.4,3.1-3.1
			V9.8C31.5,8.1,30.1,6.7,28.4,6.7z M14.5,20.7c0,0.1-0.1,0.2-0.2,0.2h-2c-0.1,0-0.2-0.1-0.1-0.2l0.7-3.6c0-0.1,0-0.2-0.1-0.2h-2.5
			c-0.1,0-0.2,0.1-0.2,0.2l-0.7,3.6c0,0.1-0.1,0.2-0.2,0.2H7c-0.1,0-0.2-0.1-0.1-0.2l1.9-9.3c0-0.1,0.1-0.2,0.2-0.2h2
			c0.1,0,0.2,0.1,0.1,0.2l-0.7,3.3c0,0.1,0,0.2,0.1,0.2h2.5c0.1,0,0.2-0.1,0.2-0.2l0.6-3.3c0-0.1,0.1-0.2,0.2-0.2h2
			c0.1,0,0.2,0.1,0.1,0.2L14.5,20.7z M19.8,20.9h-3c-0.1,0-0.2-0.1-0.1-0.2l1.9-9.3c0-0.1,0.1-0.2,0.2-0.2h2.1
			c2.7,0,4.3,1.2,4.3,3.8C25.2,18.9,22.9,20.9,19.8,20.9z"/>
	</g>
</g>
</svg>
