<?xml version="1.0" encoding="utf-8"?>
<!-- Generator: Adobe Illustrator 21.0.0, SVG Export Plug-In . SVG Version: 6.00 Build 0)  -->
<svg version="1.1" id="Layer_1" xmlns="http://www.w3.org/2000/svg" xmlns:xlink="http://www.w3.org/1999/xlink" x="0px" y="0px"
	 width="32px" height="32px" viewBox="0 0 32 32" enable-background="new 0 0 32 32" xml:space="preserve">
<g>
	<g>
		<path fill="#818181" d="M30.8,14.6l-4.6-4.8V4.3c0-1-0.8-1.8-1.8-1.8c-1,0-1.8,0.8-1.8,1.8v1.9l-3.5-3.5c-1.7-1.7-4.7-1.7-6.4,0
			L1.2,14.6c-0.7,0.7-0.7,1.8,0,2.5c0.7,0.7,1.8,0.7,2.5,0L15.3,5.3c0.4-0.4,1-0.4,1.4,0l11.6,11.9c0.3,0.4,0.8,0.5,1.2,0.5
			c0.5,0,0.9-0.2,1.2-0.5C31.5,16.4,31.5,15.3,30.8,14.6z M16.6,8.7c-0.3-0.3-0.9-0.3-1.2,0L5.2,19.1c-0.2,0.2-0.3,0.4-0.3,0.6v7.6
			c0,1.8,1.4,3.2,3.2,3.2h5.1v-8h5.7v8h5.1c1.7,0,3.2-1.5,3.2-3.2v-7.6c0-0.2-0.1-0.5-0.3-0.6L16.6,8.7z"/>
	</g>
</g>
</svg>
