<?xml version="1.0" encoding="utf-8"?>
<!-- Generator: Adobe Illustrator 21.0.1, SVG Export Plug-In . SVG Version: 6.00 Build 0)  -->
<svg version="1.1" id="Layer_1" xmlns="http://www.w3.org/2000/svg" xmlns:xlink="http://www.w3.org/1999/xlink" x="0px" y="0px"
	 width="32px" height="32px" viewBox="0 0 32 32" enable-background="new 0 0 32 32" xml:space="preserve">
<path fill-rule="evenodd" clip-rule="evenodd" fill="#818181" d="M9.6,22.8V4.4l19.2-3.6v21.7c0,2.3-2.1,4.6-4.8,5
	c-2.6,0.5-4.8-1-4.8-3.3s2.1-4.6,4.8-5c0.6-0.1,1.1-0.1,1.6-0.1V5.5L12.7,8v18.1c0,2.3-2.1,4.6-4.8,5c-2.6,0.5-4.8-1-4.8-3.3
	c0-2.3,2.1-4.6,4.8-5C8.5,22.7,9.1,22.7,9.6,22.8z"/>
</svg>
