<?xml version="1.0" encoding="utf-8"?>
<!-- Generator: Adobe Illustrator 21.0.0, SVG Export Plug-In . SVG Version: 6.00 Build 0)  -->
<svg version="1.1" id="Layer_1" xmlns="http://www.w3.org/2000/svg" xmlns:xlink="http://www.w3.org/1999/xlink" x="0px" y="0px"
	 width="32px" height="32px" viewBox="0 0 32 32" enable-background="new 0 0 32 32" xml:space="preserve">
<path fill="#818181" d="M24.4,30.8c0.7,0,6.7-4.4,6.7-5c0-0.6-6.8-4.8-7.4-4.8c-0.6,0-2.6,2.3-3.1,2.6c-0.5,0.3-3.9,0.2-7.5-3.5
	c-3.7-3.6-5-7.8-5-8.5c0-0.7,3.1-2.7,3.2-3.2C11.5,8.1,7.3,1,6.6,1C6,1,0.8,7.1,0.8,7.6c0,0.5,0.5,7.1,8.9,15.4S23.8,30.8,24.4,30.8
	z"/>
</svg>
