<?xml version="1.0" encoding="utf-8"?>
<!-- Generator: Adobe Illustrator 21.0.0, SVG Export Plug-In . SVG Version: 6.00 Build 0)  -->
<svg version="1.1" id="Layer_1" xmlns="http://www.w3.org/2000/svg" xmlns:xlink="http://www.w3.org/1999/xlink" x="0px" y="0px"
	 width="32px" height="32px" viewBox="0 0 32 32" enable-background="new 0 0 32 32" xml:space="preserve">
<g>
	<g>
		<path fill="#818181" d="M27.4,23.4L27.4,23.4l-10.5-9.1c-0.2-0.2-0.5-0.3-0.8-0.3c-0.1,0-0.1,0-0.2,0c-0.3,0-0.5,0.1-0.8,0.3
			L4.6,23.4c-0.6,0.5-0.6,1.3-0.1,1.8c0.3,0.3,0.6,0.4,1,0.4c0.3,0,0.6-0.1,0.9-0.3L6.8,25v5.9c0,0.2,0.1,0.4,0.2,0.6
			c0.2,0.1,0.4,0.2,0.6,0.2h16.8c0.2,0,0.4-0.1,0.6-0.2c0.2-0.1,0.2-0.3,0.2-0.6V25l0.4,0.4c0.6,0.5,1.4,0.4,1.9-0.1
			C28,24.7,27.9,23.8,27.4,23.4z M18.7,28.6H13V24h5.7V28.6z M15.7,3.4c0.1,0,0.2,0,0.2,0c3.4,0,6.4,1.6,8.2,4.1l2.4-1.9
			C24.2,2.4,20.3,0.4,16,0.4c-0.1,0-0.2,0-0.3,0C11.2,0.5,7.4,2.7,5.1,6l2.5,1.8C9.3,5.2,12.3,3.4,15.7,3.4z M15.8,6
			C13.2,6.1,11,7.4,9.7,9.4l2.5,1.8C12.9,9.9,14.3,9,15.9,9c0,0,0.1,0,0.1,0c1.6,0,3,0.8,3.7,2.1l2.4-1.9C20.8,7.3,18.5,6,16,6
			C15.9,6,15.9,6,15.8,6z"/>
	</g>
</g>
</svg>
