<?xml version="1.0" encoding="utf-8"?>
<!-- Generator: Adobe Illustrator 21.0.0, SVG Export Plug-In . SVG Version: 6.00 Build 0)  -->
<svg version="1.1" id="Layer_1" xmlns="http://www.w3.org/2000/svg" xmlns:xlink="http://www.w3.org/1999/xlink" x="0px" y="0px"
	 width="32px" height="32px" viewBox="0 0 32 32" enable-background="new 0 0 32 32" xml:space="preserve">
<g>
	<g>
		<path fill="#818181" d="M16,0.4C7.4,0.4,0.4,7.4,0.4,16c0,8.6,7,15.6,15.6,15.6c8.6,0,15.6-7,15.6-15.6C31.6,7.4,24.6,0.4,16,0.4z
			 M16,29.1C8.7,29.1,2.9,23.3,2.9,16C2.9,8.7,8.7,2.9,16,2.9S29.1,8.7,29.1,16C29.1,23.3,23.3,29.1,16,29.1z M15,23.8H17v-1.9H15
			V23.8z M19.8,9.6c-0.4-0.4-0.9-0.7-1.5-1c-0.6-0.2-1.3-0.4-2.2-0.4c-0.7,0-1.4,0.1-2,0.4c-0.6,0.3-1.1,0.6-1.6,1
			c-0.4,0.4-0.8,0.9-1,1.5c-0.2,0.6-0.3,1-0.3,1.9h2c0-1,0.3-1.7,0.8-2.3c0.5-0.6,1.2-0.9,2.1-0.9c0.9,0,1.5,0.2,2,0.7
			c0.4,0.4,0.6,1,0.6,1.8c0,0.6-0.2,1.1-0.6,1.6c-0.4,0.5-0.8,0.9-1.3,1.4c-0.5,0.4-0.8,0.9-1.2,1.4c-0.4,0.5-0.5,1-0.5,1.7v1.6H17
			v-0.8c0-0.5,0.1-0.9,0.3-1.3c0.2-0.4,0.4-0.7,0.7-1c0.3-0.3,0.6-0.6,0.9-0.9c0.3-0.3,0.7-0.6,0.9-0.9c0.3-0.3,0.5-0.7,0.7-1.1
			c0.2-0.4,0.3-0.9,0.3-1.4c0-0.5-0.1-1-0.3-1.5C20.4,10.4,20.1,10,19.8,9.6z"/>
	</g>
</g>
</svg>
