<?xml version="1.0" encoding="utf-8"?>
<!-- Generator: Adobe Illustrator 21.0.0, SVG Export Plug-In . SVG Version: 6.00 Build 0)  -->
<svg version="1.1" id="Layer_1" xmlns="http://www.w3.org/2000/svg" xmlns:xlink="http://www.w3.org/1999/xlink" x="0px" y="0px"
	 width="32px" height="32px" viewBox="0 0 32 32" enable-background="new 0 0 32 32" xml:space="preserve">
<path fill="#818181" d="M16,17.3c-2.7,0-5.5,1.1-7.5,3.2c0,0,0,0,0,0l2.1,2.2c0,0,0,0,0,0c1.5-1.5,3.4-2.3,5.4-2.3
	c2,0,3.9,0.8,5.4,2.3c0,0,0,0,0,0l2.1-2.2c0,0,0,0,0,0C21.4,18.4,18.7,17.3,16,17.3z M16,23.2c-1.3,0-2.5,0.5-3.5,1.5c0,0,0,0,0,0
	l1.8,1.8c0.1,0.1,0.3,0.3,0.4,0.4c0.8,0.6,1.9,0.6,2.6,0c0.1-0.1,0.4-0.3,0.4-0.4l1.3-1.3l0.2-0.2l0.2-0.2c0,0,0,0,0,0
	C18.5,23.7,17.3,23.2,16,23.2z M16,11.5c-4.2,0-8.4,1.6-11.6,4.9c0,0,0,0,0,0l2.1,2.1c0,0,0,0,0,0c2.6-2.7,6.1-4,9.5-4
	c3.4,0,6.8,1.3,9.4,4c0,0,0,0,0,0l2.1-2.1c0,0,0,0,0,0C24.4,13.2,20.2,11.5,16,11.5z M31.6,12.3c-4.3-4.4-10-6.6-15.6-6.6
	c-5.7,0-11.4,2.2-15.7,6.6c0,0,0,0,0,0l2.1,2.1c0,0,0,0,0,0c3.8-3.8,8.7-5.7,13.6-5.7c4.9,0,9.8,1.9,13.5,5.7c0,0,0,0,0,0L31.6,12.3
	C31.7,12.3,31.7,12.3,31.6,12.3z"/>
</svg>
